HIERARCHY
ROOT Hips
{
	OFFSET 0.000000 71.427986 0.000000
	CHANNELS 6 Xposition Yposition Zposition Xrotation Yrotation Zrotation
	JOINT Pelvis
	{
		OFFSET 0.000000 0.000000 0.000000
		CHANNELS 3 Xrotation Yrotation Zrotation
		JOINT LeftUpLeg
		{
			OFFSET 6.797100 -2.508499 -1.318700
			CHANNELS 3 Xrotation Yrotation Zrotation
			JOINT LeftLeg
			{
				OFFSET 0.069008 -29.241863 0.690200
				CHANNELS 3 Xrotation Yrotation Zrotation
				JOINT LeftFoot
				{
					OFFSET -0.069008 -29.568123 -0.266800
					CHANNELS 3 Xrotation Yrotation Zrotation
					JOINT LeftToeBase
					{
						OFFSET 3.145500 -8.631000 16.059900
						CHANNELS 3 Xrotation Yrotation Zrotation
						End Site
						{
							OFFSET 0.000000 18.501587 0.000000
						}
					}
				}
			}
			JOINT Left_ShortSleeve
			{
				OFFSET 0.265923 -10.480953 1.153800
				CHANNELS 3 Xrotation Yrotation Zrotation
				End Site
				{
					OFFSET 1.725763 19.823879 0.000000
				}
			}
		}
		JOINT RightUpLeg
		{
			OFFSET -6.797100 -2.508499 -1.318700
			CHANNELS 3 Xrotation Yrotation Zrotation
			JOINT RightLeg
			{
				OFFSET -0.082453 -29.241932 0.688000
				CHANNELS 3 Xrotation Yrotation Zrotation
				JOINT RightFoot
				{
					OFFSET 0.082453 -29.568058 -0.264600
					CHANNELS 3 Xrotation Yrotation Zrotation
					JOINT RightToeBase
					{
						OFFSET -3.115300 -8.682800 16.113400
						CHANNELS 3 Xrotation Yrotation Zrotation
						End Site
						{
							OFFSET 0.000000 18.567114 0.000000
						}
					}
				}
			}
			JOINT Right_ShortSleeve
			{
				OFFSET -0.265923 -10.480953 1.153800
				CHANNELS 3 Xrotation Yrotation Zrotation
				End Site
				{
					OFFSET -1.725766 19.823910 0.000000
				}
			}
		}
	}
	JOINT Spine
	{
		OFFSET 0.000000 13.368103 0.470500
		CHANNELS 3 Xrotation Yrotation Zrotation
		JOINT Spine1
		{
			OFFSET 0.147000 13.837402 0.538800
			CHANNELS 3 Xrotation Yrotation Zrotation
			JOINT Spine2
			{
				OFFSET 0.168000 16.242897 -1.435500
				CHANNELS 3 Xrotation Yrotation Zrotation
				JOINT Neck
				{
					OFFSET 0.217200 18.631500 -1.679100
					CHANNELS 3 Xrotation Yrotation Zrotation
					JOINT Head
					{
						OFFSET 0.000000 6.599396 1.385900
						CHANNELS 3 Xrotation Yrotation Zrotation
						JOINT Hat
						{
							OFFSET -0.532200 27.220596 -10.096100
							CHANNELS 3 Xrotation Yrotation Zrotation
							End Site
							{
								OFFSET 0.000000 22.029861 0.000000
							}
						}
						JOINT HairD
						{
							OFFSET -10.777400 17.437393 -1.325900
							CHANNELS 3 Xrotation Yrotation Zrotation
							JOINT HairD1
							{
								OFFSET -3.290299 -11.051193 1.062200
								CHANNELS 3 Xrotation Yrotation Zrotation
								End Site
								{
									OFFSET 0.000000 11.579437 0.000000
								}
							}
						}
						JOINT HairB
						{
							OFFSET -10.777400 17.437393 1.467900
							CHANNELS 3 Xrotation Yrotation Zrotation
							JOINT HairB1
							{
								OFFSET -1.561200 -12.956299 3.590200
								CHANNELS 3 Xrotation Yrotation Zrotation
								End Site
								{
									OFFSET 0.000000 13.534866 0.000000
								}
							}
						}
						JOINT HairA
						{
							OFFSET 9.713100 17.437393 1.467900
							CHANNELS 3 Xrotation Yrotation Zrotation
							JOINT HairA1
							{
								OFFSET 1.561200 -12.956299 3.590200
								CHANNELS 3 Xrotation Yrotation Zrotation
								End Site
								{
									OFFSET 0.000000 13.534866 0.000000
								}
							}
						}
						JOINT HairC
						{
							OFFSET 9.713100 17.437393 -1.325900
							CHANNELS 3 Xrotation Yrotation Zrotation
							JOINT HairC1
							{
								OFFSET 3.290300 -11.051193 1.062200
								CHANNELS 3 Xrotation Yrotation Zrotation
								End Site
								{
									OFFSET 0.000000 11.579437 0.000000
								}
							}
						}
					}
				}
				JOINT LeftShoulder
				{
					OFFSET 5.101800 15.108002 -2.763700
					CHANNELS 3 Xrotation Yrotation Zrotation
					JOINT LeftArm
					{
						OFFSET 9.825497 2.506317 -1.597400
						CHANNELS 3 Xrotation Yrotation Zrotation
						JOINT LeftForeArm
						{
							OFFSET 21.966244 0.000000 0.000000
							CHANNELS 3 Xrotation Yrotation Zrotation
							JOINT LeftHand
							{
								OFFSET 33.879036 0.000000 0.000000
								CHANNELS 3 Xrotation Yrotation Zrotation
								JOINT LeftHandThumb1
								{
									OFFSET 6.715286 -2.359680 3.363841
									CHANNELS 3 Xrotation Yrotation Zrotation
									JOINT LeftHandThumb2
									{
										OFFSET 2.507072 -1.447464 1.447461
										CHANNELS 3 Xrotation Yrotation Zrotation
										JOINT LeftHandThumb3
										{
											OFFSET 2.898338 -1.673355 1.673357
											CHANNELS 3 Xrotation Yrotation Zrotation
											End Site
											{
												OFFSET -0.295959 3.727692 -0.131651
											}
										}
									}
								}
								JOINT LeftHandIndex1
								{
									OFFSET 14.190811 -0.254547 3.840278
									CHANNELS 3 Xrotation Yrotation Zrotation
									JOINT LeftHandIndex2
									{
										OFFSET 3.551727 0.000000 -0.000000
										CHANNELS 3 Xrotation Yrotation Zrotation
										JOINT LeftHandIndex3
										{
											OFFSET 2.894196 0.000000 0.000000
											CHANNELS 3 Xrotation Yrotation Zrotation
											End Site
											{
												OFFSET -1.000603 2.690872 0.366626
											}
										}
									}
								}
								JOINT LeftHandMiddle1
								{
									OFFSET 13.776489 0.000000 0.000000
									CHANNELS 3 Xrotation Yrotation Zrotation
									JOINT LeftHandMiddle2
									{
										OFFSET 3.438232 0.000000 0.000000
										CHANNELS 3 Xrotation Yrotation Zrotation
										JOINT LeftHandMiddle3
										{
											OFFSET 3.691551 0.000000 0.000000
											CHANNELS 3 Xrotation Yrotation Zrotation
											End Site
											{
												OFFSET -1.082298 3.499527 0.457670
											}
										}
									}
								}
								JOINT LeftHandRing1
								{
									OFFSET 13.966164 -0.268127 -3.067488
									CHANNELS 3 Xrotation Yrotation Zrotation
									JOINT LeftHandRing2
									{
										OFFSET 3.162567 0.000000 0.000000
										CHANNELS 3 Xrotation Yrotation Zrotation
										JOINT LeftHandRing3
										{
											OFFSET 3.324348 0.000000 0.000000
											CHANNELS 3 Xrotation Yrotation Zrotation
											End Site
											{
												OFFSET -0.861900 3.184998 0.405154
											}
										}
									}
								}
								JOINT LeftHandPinky1
								{
									OFFSET 13.131393 -0.168503 -5.746925
									CHANNELS 3 Xrotation Yrotation Zrotation
									JOINT LeftHandPinky2
									{
										OFFSET 2.849182 0.000000 0.000000
										CHANNELS 3 Xrotation Yrotation Zrotation
										JOINT LeftHandPinky3
										{
											OFFSET 2.805038 0.000000 0.000000
											CHANNELS 3 Xrotation Yrotation Zrotation
											End Site
											{
												OFFSET -0.882500 2.642609 0.325652
											}
										}
									}
								}
							}
							JOINT Left_Sleeve
							{
								OFFSET 6.592125 -0.646545 0.805568
								CHANNELS 3 Xrotation Yrotation Zrotation
								End Site
								{
									OFFSET -0.000179 20.275787 -0.000000
								}
							}
						}
					}
				}
				JOINT RightShoulder
				{
					OFFSET -5.731700 15.108002 -2.763700
					CHANNELS 3 Xrotation Yrotation Zrotation
					JOINT RightArm
					{
						OFFSET -9.825497 2.506317 -1.597400
						CHANNELS 3 Xrotation Yrotation Zrotation
						JOINT RightForeArm
						{
							OFFSET -21.966242 0.000000 0.000000
							CHANNELS 3 Xrotation Yrotation Zrotation
							JOINT RightHand
							{
								OFFSET -33.879032 0.000000 0.000000
								CHANNELS 3 Xrotation Yrotation Zrotation
								JOINT RightHandThumb1
								{
									OFFSET -6.715286 -2.359680 3.363841
									CHANNELS 3 Xrotation Yrotation Zrotation
									JOINT RightHandThumb2
									{
										OFFSET -2.507072 -1.447464 1.447461
										CHANNELS 3 Xrotation Yrotation Zrotation
										JOINT RightHandThumb3
										{
											OFFSET -2.898338 -1.673355 1.673357
											CHANNELS 3 Xrotation Yrotation Zrotation
											End Site
											{
												OFFSET 0.295959 3.727692 -0.131651
											}
										}
									}
								}
								JOINT RightHandIndex1
								{
									OFFSET -14.190811 -0.254547 3.840278
									CHANNELS 3 Xrotation Yrotation Zrotation
									JOINT RightHandIndex2
									{
										OFFSET -3.551727 0.000000 -0.000000
										CHANNELS 3 Xrotation Yrotation Zrotation
										JOINT RightHandIndex3
										{
											OFFSET -2.894196 0.000000 0.000000
											CHANNELS 3 Xrotation Yrotation Zrotation
											End Site
											{
												OFFSET 1.000603 2.690872 0.366626
											}
										}
									}
								}
								JOINT RightHandMiddle1
								{
									OFFSET -13.776489 0.000000 0.000000
									CHANNELS 3 Xrotation Yrotation Zrotation
									JOINT RightHandMiddle2
									{
										OFFSET -3.438232 0.000000 0.000000
										CHANNELS 3 Xrotation Yrotation Zrotation
										JOINT RightHandMiddle3
										{
											OFFSET -3.691551 0.000000 0.000000
											CHANNELS 3 Xrotation Yrotation Zrotation
											End Site
											{
												OFFSET 1.082298 3.499527 0.457670
											}
										}
									}
								}
								JOINT RightHandRing1
								{
									OFFSET -13.966164 -0.268127 -3.067488
									CHANNELS 3 Xrotation Yrotation Zrotation
									JOINT RightHandRing2
									{
										OFFSET -3.162567 0.000000 0.000000
										CHANNELS 3 Xrotation Yrotation Zrotation
										JOINT RightHandRing3
										{
											OFFSET -3.324348 0.000000 0.000000
											CHANNELS 3 Xrotation Yrotation Zrotation
											End Site
											{
												OFFSET 0.861900 3.184998 0.405154
											}
										}
									}
								}
								JOINT RightHandPinky1
								{
									OFFSET -13.131393 -0.168503 -5.746925
									CHANNELS 3 Xrotation Yrotation Zrotation
									JOINT RightHandPinky2
									{
										OFFSET -2.849182 0.000000 0.000000
										CHANNELS 3 Xrotation Yrotation Zrotation
										JOINT RightHandPinky3
										{
											OFFSET -2.805038 0.000000 0.000000
											CHANNELS 3 Xrotation Yrotation Zrotation
											End Site
											{
												OFFSET 0.882500 2.642609 0.325652
											}
										}
									}
								}
							}
							JOINT Right_Sleeve
							{
								OFFSET -6.592125 -0.646545 0.805568
								CHANNELS 3 Xrotation Yrotation Zrotation
								End Site
								{
									OFFSET 0.000179 20.275787 -0.000000
								}
							}
						}
					}
				}
				JOINT Bind_Right_JacketString
				{
					OFFSET -3.534800 11.969597 7.200700
					CHANNELS 3 Xrotation Yrotation Zrotation
					JOINT Bind_Right_JacketString1
					{
						OFFSET -0.319900 -6.102600 2.794100
						CHANNELS 3 Xrotation Yrotation Zrotation
						End Site
						{
							OFFSET 0.000000 6.719452 0.000000
						}
					}
				}
				JOINT Bind_Left_JacketString
				{
					OFFSET 2.904800 11.969597 7.200700
					CHANNELS 3 Xrotation Yrotation Zrotation
					JOINT Bind_Left_JacketString1
					{
						OFFSET 0.364800 -5.904503 3.186800
						CHANNELS 3 Xrotation Yrotation Zrotation
						End Site
						{
							OFFSET 0.000000 6.719513 0.000000
						}
					}
				}
				JOINT HairE
				{
					OFFSET 5.915200 17.612701 -11.592200
					CHANNELS 3 Xrotation Yrotation Zrotation
					JOINT HairE1
					{
						OFFSET 0.289200 -7.171898 -1.284500
						CHANNELS 3 Xrotation Yrotation Zrotation
						End Site
						{
							OFFSET 0.000000 7.291756 0.000000
						}
					}
				}
				JOINT HairF
				{
					OFFSET -0.864800 17.612701 -11.592200
					CHANNELS 3 Xrotation Yrotation Zrotation
					JOINT HairF1
					{
						OFFSET 0.000000 -14.087097 -2.127501
						CHANNELS 3 Xrotation Yrotation Zrotation
						End Site
						{
							OFFSET 0.000000 14.246841 0.000000
						}
					}
				}
				JOINT HairG
				{
					OFFSET -8.087700 17.612701 -11.592200
					CHANNELS 3 Xrotation Yrotation Zrotation
					JOINT HairG1
					{
						OFFSET -0.293600 -6.081398 -0.910100
						CHANNELS 3 Xrotation Yrotation Zrotation
						End Site
						{
							OFFSET 0.000000 6.156120 0.000000
						}
					}
				}
			}
		}
	}
	JOINT Pouch
	{
		OFFSET 0.000000 4.394501 10.847300
		CHANNELS 3 Xrotation Yrotation Zrotation
		End Site
		{
			OFFSET 0.000000 21.880577 0.000000
		}
	}
	JOINT Bag
	{
		OFFSET -13.229000 4.813004 -0.593300
		CHANNELS 3 Xrotation Yrotation Zrotation
		End Site
		{
			OFFSET 0.000000 21.880577 0.000000
		}
	}
	JOINT OccupyGuyFacialAnim_Joint
	{
		OFFSET 1.000000 -70.206398 -1.655000
		CHANNELS 3 Xrotation Yrotation Zrotation
		End Site
		{
			OFFSET 0.000000 21.880577 0.000000
		}
	}
}
MOTION
Frames: 4
Frame Time: 0.033333
-0.264615 69.882820 0.239123 -0.313689 0.032965 -2.751121 -0.000000 -0.000000 0.000000 -16.823550 12.477000 11.750961 22.964004 15.625535 1.341587 -5.388928 -0.959691 -7.936801 -0.000000 -0.000000 0.000000 -0.000000 0.000001 0.000000 -3.338344 -4.190038 3.070350 18.906392 -6.365504 3.560118 -14.905703 3.506876 -2.373964 0.000000 -0.000000 0.000000 0.000000 -0.000000 -0.000000 0.564350 -1.415331 0.739435 0.850269 -0.165738 2.642151 0.816151 0.275916 2.542616 1.349114 -0.339451 0.016286 1.760755 0.545470 -5.596892 -0.000000 -0.000000 0.000000 -0.000000 -0.000000 0.000000 -0.000000 -0.000000 0.000000 -0.000000 -0.000000 0.000000 -0.000000 0.000000 0.000000 -0.000000 -0.000000 0.000000 -0.000000 0.000000 0.000000 -0.000000 -0.000000 0.000000 -0.000000 -0.000000 0.000000 -0.145351 0.096742 -0.252954 3.548426 -25.938154 -73.340317 2.221358 -19.985383 0.675249 -24.630432 1.262769 3.044193 15.772749 2.736702 17.226164 -1.824970 31.518956 -7.298207 0.000000 -0.000000 -0.000002 2.389126 3.778824 -9.259670 -2.092591 2.625565 -19.848902 0.000001 -0.000001 -0.000002 -1.930440 5.887645 -14.819004 0.384203 5.324696 -28.601588 -0.000000 -0.000000 -0.000003 -3.205224 8.817253 -13.364524 4.234499 4.346304 -35.362106 -0.000003 0.000002 -0.000001 -6.339997 11.631274 -25.191541 10.960302 2.882156 -37.261684 -0.000003 0.000000 -0.000002 -0.000002 0.000001 -0.000001 -0.151403 -0.094210 0.275482 5.398307 -3.103279 75.208593 -0.933750 19.148579 0.386221 -7.795073 -8.566340 5.433812 15.825038 -2.794133 -17.214208 -2.081923 -31.106751 7.343363 0.000001 0.000001 0.000004 2.383217 -3.679303 8.688461 -2.134387 -2.511980 18.931572 -0.000000 0.000000 -0.000001 -1.977477 -5.709021 13.698670 0.268697 -5.107247 27.067666 0.000000 0.000000 -0.000001 -4.992075 -10.106603 10.791597 4.032245 -4.052039 33.266122 0.000001 -0.000001 -0.000001 -6.494118 -11.374613 23.393190 10.714655 -2.546057 34.865899 0.000000 0.000000 0.000002 0.000000 0.000001 -0.000000 0.000000 -0.000000 0.000000 0.000000 0.000000 0.000000 0.000000 -0.000000 0.000000 0.000000 -0.000000 0.000000 0.000000 -0.000000 0.000000 0.000000 0.000000 0.000000 0.000000 -0.000000 0.000000 0.000000 -0.000000 0.000000 0.000000 -0.000000 0.000000 0.000000 0.000000 0.000000 -0.000000 -0.000000 0.000000 -0.000000 -0.000000 0.000000 -0.000000 -0.000000 0.000000 
-0.265285 69.881943 0.237623 -0.333335 0.033173 -2.756064 0.000000 0.000000 -0.000000 -16.815272 12.480867 11.760535 22.979618 15.622150 1.341403 -5.395657 -0.962938 -7.938314 0.000000 -0.000002 0.000000 -0.000000 0.000000 -0.000000 -3.322601 -4.197561 3.074303 18.914773 -6.362340 3.561047 -14.909243 3.511943 -2.375013 0.000000 0.000000 0.000000 0.000000 -0.000000 -0.000000 0.565681 -1.415152 0.739262 0.848328 -0.165958 2.642910 0.808930 0.272555 2.545754 1.370936 -0.341450 -0.018186 1.825260 0.544466 -5.560046 0.000000 -0.000000 0.000000 0.000000 -0.000000 0.000000 0.000000 -0.000000 0.000000 0.000000 -0.000000 0.000000 -0.000000 -0.000000 -0.000000 0.000000 -0.000000 0.000000 -0.000000 -0.000000 -0.000000 0.000000 -0.000000 0.000000 0.000000 -0.000000 0.000000 -0.163057 0.114138 -0.242833 3.589789 -25.953028 -73.344047 2.221402 -20.015900 0.676433 -24.448884 0.982794 3.057079 15.772754 2.736704 17.226166 -1.870008 31.440559 -7.308545 -0.000000 -0.000000 -0.000001 2.383621 3.744620 -9.040220 -2.105507 2.589598 -19.586266 -0.000000 -0.000001 -0.000000 -1.941391 5.846043 -14.556581 0.361099 5.282246 -28.301370 0.000002 -0.000000 0.000002 -3.216785 8.768503 -13.064981 4.201896 4.300249 -35.031074 -0.000000 -0.000001 -0.000002 -6.363411 11.582087 -24.867879 10.924386 2.834724 -36.913764 -0.000004 -0.000001 -0.000001 0.000003 -0.000000 0.000000 -0.231766 -0.135819 0.255961 5.507408 -3.060137 75.231317 -0.861700 19.191899 0.359189 -7.808285 -8.930993 5.377314 15.864511 -2.850624 -17.215388 -2.071610 -31.161430 7.325214 -0.000001 -0.000004 0.000000 2.375064 -3.667719 8.589280 -2.140795 -2.493730 18.830567 -0.000000 0.000000 -0.000001 -1.978598 -5.704251 13.667161 0.264715 -5.100697 27.015046 -0.000002 -0.000001 0.000003 -4.997497 -10.111989 10.835844 4.033026 -4.052309 33.270685 0.000001 0.000001 -0.000004 -6.509944 -11.407037 23.504433 10.720965 -2.542551 34.932825 -0.000001 0.000000 -0.000001 0.000000 0.000000 -0.000001 0.000000 0.000000 -0.000000 0.000000 -0.000000 -0.000000 0.000000 0.000000 -0.000000 0.000000 0.000000 -0.000000 0.000000 0.000000 -0.000000 0.000000 -0.000000 -0.000000 0.000000 0.000000 -0.000000 0.000000 0.000000 -0.000000 0.000000 0.000000 -0.000000 0.000000 -0.000000 -0.000000 0.000000 0.000000 -0.000000 0.000000 0.000000 -0.000000 0.000000 0.000000 -0.000000 
-0.266777 69.879944 0.234038 -0.376698 0.033793 -2.766952 -0.000000 -0.000000 -0.000000 -16.797056 12.487698 11.781307 23.014818 15.613717 1.340946 -5.410696 -0.967595 -7.941746 -0.000000 -0.000000 0.000000 0.000002 -0.000000 -0.000000 -3.287925 -4.212792 3.083359 18.932939 -6.353584 3.562876 -14.916908 3.519789 -2.377877 -0.000000 -0.000000 0.000000 0.000000 -0.000000 -0.000000 0.580644 -1.415036 0.738443 0.869060 -0.158753 2.647208 0.822609 0.281168 2.553859 1.393480 -0.358546 -0.075183 1.864593 0.543995 -5.503791 0.000000 0.000000 -0.000000 0.000000 0.000000 -0.000000 0.000000 0.000000 -0.000000 0.000000 0.000000 0.000000 0.000000 0.000000 -0.000000 0.000000 0.000000 0.000000 0.000000 0.000000 -0.000000 0.000000 0.000000 -0.000000 0.000000 0.000000 -0.000000 -0.173826 0.129260 -0.234627 3.603003 -25.975592 -73.354736 2.221368 -20.033785 0.677073 -24.268769 0.680498 3.072332 15.772751 2.736705 17.226161 -1.911954 31.367480 -7.318229 -0.000000 -0.000000 -0.000002 2.378996 3.715377 -8.852888 -2.116846 2.557458 -19.351871 0.000001 -0.000001 -0.000000 -1.950864 5.808874 -14.322376 0.340076 5.243169 -28.025608 0.000002 0.000001 -0.000001 -3.227220 8.723702 -12.789839 4.171632 4.256878 -34.720717 -0.000002 0.000001 0.000002 -6.385027 11.536080 -24.566375 10.890629 2.789570 -36.584023 0.000001 0.000000 0.000001 -0.000003 -0.000000 0.000001 -0.308666 -0.174045 0.237363 5.571781 -3.035017 75.252429 -0.792680 19.244620 0.333155 -7.818728 -9.302075 5.320312 15.915034 -2.922476 -17.216101 -2.058604 -31.230815 7.301562 -0.000000 0.000000 0.000004 2.369607 -3.659927 8.522712 -2.145714 -2.479742 18.753015 -0.000000 0.000000 -0.000002 -1.978073 -5.705350 13.672676 0.261730 -5.098892 26.989829 0.000000 0.000001 -0.000004 -5.007470 -10.121950 10.917308 4.035902 -4.053643 33.306857 0.000001 -0.000001 0.000002 -6.529958 -11.448440 23.646185 10.727687 -2.540389 35.028079 -0.000001 0.000000 0.000002 0.000000 -0.000000 0.000001 -0.000000 -0.000000 0.000000 -0.000000 -0.000000 -0.000000 -0.000000 -0.000000 0.000000 -0.000000 -0.000000 0.000000 -0.000000 -0.000000 0.000000 -0.000000 -0.000000 0.000000 -0.000000 -0.000000 0.000000 -0.000000 -0.000000 0.000000 -0.000000 -0.000000 0.000000 -0.000000 -0.000000 0.000000 -0.000000 -0.000000 -0.000000 -0.000000 -0.000000 -0.000000 -0.000000 -0.000000 -0.000000 
-0.269207 69.876564 0.229287 -0.428825 0.035118 -2.780071 0.000000 -0.000000 -0.000000 -16.778872 12.490985 11.806692 23.064410 15.607629 1.340840 -5.431201 -0.973589 -7.948175 -0.000000 -0.000002 0.000000 0.000000 0.000001 0.000000 -3.252270 -4.228150 3.094985 18.965813 -6.346961 3.565149 -14.931302 3.529268 -2.380675 -0.000000 -0.000000 -0.000000 -0.000000 -0.000000 -0.000000 0.603936 -1.414938 0.737145 0.894130 -0.151900 2.652650 0.836645 0.284009 2.559121 1.416798 -0.377869 -0.145125 1.908352 0.546096 -5.435388 -0.000000 0.000000 0.000000 -0.000000 0.000000 0.000000 -0.000000 0.000000 -0.000000 -0.000000 0.000000 0.000000 -0.000001 -0.000000 0.000000 -0.000000 0.000000 0.000000 -0.000001 -0.000000 0.000000 -0.000000 0.000000 0.000000 -0.000000 0.000000 0.000000 -0.179837 0.142376 -0.229988 3.621744 -25.990506 -73.371559 2.221235 -20.038727 0.677223 -24.090318 0.356508 3.090242 15.772749 2.736702 17.226166 -1.950501 31.300394 -7.327215 -0.000001 -0.000000 -0.000004 2.375312 3.691544 -8.700060 -2.126370 2.529415 -19.148246 0.000001 0.000000 0.000002 -1.959677 5.776720 -14.118857 0.321279 5.207818 -27.776856 0.000000 0.000001 -0.000003 -3.236413 8.683206 -12.541664 4.143781 4.216654 -34.433511 -0.000002 0.000000 -0.000001 -6.404606 11.493828 -24.289425 10.859171 2.747016 -36.274988 -0.000000 -0.000001 -0.000001 0.000000 -0.000000 -0.000002 -0.381440 -0.209814 0.219825 5.621298 -3.011820 75.272680 -0.727525 19.304589 0.308623 -7.825785 -9.676506 5.263983 15.975490 -3.008473 -17.216902 -2.044109 -31.313429 7.271443 0.000001 -0.000001 0.000001 2.367282 -3.657703 8.490896 -2.148746 -2.470932 18.700938 0.000000 -0.000000 0.000002 -1.975747 -5.712602 13.717777 0.262078 -5.099777 26.994243 0.000000 -0.000000 0.000001 -5.021776 -10.135397 11.033294 4.040902 -4.059744 33.373633 0.000001 -0.000000 -0.000000 -6.553965 -11.497730 23.815886 10.735257 -2.538311 35.149400 -0.000001 0.000000 0.000002 0.000000 0.000001 -0.000001 -0.000000 0.000000 -0.000000 -0.000000 0.000000 -0.000000 -0.000000 0.000000 -0.000000 -0.000000 0.000000 -0.000000 -0.000000 0.000000 -0.000000 -0.000000 0.000000 -0.000000 -0.000000 0.000000 -0.000000 -0.000000 0.000000 -0.000000 -0.000000 0.000000 -0.000000 -0.000000 0.000000 -0.000000 0.000000 -0.000000 -0.000000 0.000000 -0.000000 -0.000000 0.000000 -0.000000 -0.000000 
